{"accessors" : [{"bufferView" : 0, "byteOffset" : 0, "componentType" : 5123, "count" : 4452, "type" : "SCALAR", "max" : [3612], "min" : [0]}, {"bufferView" : 1, "byteOffset" : 0, "componentType" : 5126, "count" : 3613, "type" : "VEC3", "max" : [0.7043910026550293, 3.352102041244507, 0.38066399097442627], "min" : [-0.7043910026550293, -0.02847900055348873, -0.4918549954891205], "name" : "POSITION"}, {"bufferView" : 1, "byteOffset" : 12, "componentType" : 5126, "count" : 3613, "type" : "VEC2", "max" : [0.9901750087738037, -0.00027799999224953353], "min" : [0.00027799999224953353, -0.994280993938446], "name" : "TEXCOORD_0"}, {"bufferView" : 0, "byteOffset" : 8904, "componentType" : 5123, "count" : 9792, "type" : "SCALAR", "max" : [7837], "min" : [0]}, {"bufferView" : 2, "byteOffset" : 0, "componentType" : 5126, "count" : 7838, "type" : "VEC3", "max" : [1.3271889686584473, 3.7537589073181152, 0.3476710021495819], "min" : [-1.3271889686584473, 0.0233169998973608, -0.36708301305770874], "name" : "POSITION"}, {"bufferView" : 2, "byteOffset" : 12, "componentType" : 5126, "count" : 7838, "type" : "VEC2", "max" : [0.9564440250396729, 0.00107999995816499], "min" : [0.01947700046002865, -0.9861189723014832], "name" : "TEXCOORD_0"}, {"bufferView" : 0, "byteOffset" : 28488, "componentType" : 5123, "count" : 6, "type" : "SCALAR", "max" : [4], "min" : [0]}, {"bufferView" : 3, "byteOffset" : 0, "componentType" : 5126, "count" : 5, "type" : "VEC3", "max" : [3.0687448978424072, -0.03497900068759918, 3.0687448978424072], "min" : [-3.0687448978424072, -0.03497900068759918, -3.0687448978424072], "name" : "POSITION"}, {"bufferView" : 0, "byteOffset" : 28500, "componentType" : 5123, "count" : 1593, "type" : "SCALAR", "max" : [1307], "min" : [0]}, {"bufferView" : 4, "byteOffset" : 0, "componentType" : 5126, "count" : 1308, "type" : "VEC3", "max" : [0.20791199803352356, 3.8361940383911133, 0.19531500339508057], "min" : [-0.2093529999256134, 3.2784860134124756, -0.26997900009155273], "name" : "POSITION"}, {"bufferView" : 4, "byteOffset" : 12, "componentType" : 5126, "count" : 1308, "type" : "VEC2", "max" : [0.9998109936714172, -0.01762700080871582], "min" : [0.00018899999849963933, -0.9578490257263184], "name" : "TEXCOORD_0"}], "asset" : {"generator" : "Aspose.3D 22.1", "version" : "2.0"}, "buffers" : [{"uri" : "data:application/octet-stream;base64,", "byteLength" : 348520}], "bufferViews" : [{"buffer" : 0, "byteOffset" : 0, "byteLength" : 31688, "target" : 34963}, {"buffer" : 0, "byteOffset" : 31692, "byteLength" : 89040, "byteStride" : 20, "target" : 34962}, {"buffer" : 0, "byteOffset" : 120736, "byteLength" : 195840, "byteStride" : 20, "target" : 34962}, {"buffer" : 0, "byteOffset" : 316580, "byteLength" : 72, "byteStride" : 12, "target" : 34962}, {"buffer" : 0, "byteOffset" : 316656, "byteLength" : 31860, "byteStride" : 20, "target" : 34962}], "meshes" : [{"primitives" : [{"attributes" : {"POSITION" : 1, "TEXCOORD_0" : 2}, "indices" : 0, "mode" : 4}], "name" : ""}, {"primitives" : [{"attributes" : {"POSITION" : 4, "TEXCOORD_0" : 5}, "indices" : 3, "mode" : 4}], "name" : ""}, {"primitives" : [{"attributes" : {"POSITION" : 7}, "indices" : 6, "mode" : 4}], "name" : ""}, {"primitives" : [{"attributes" : {"POSITION" : 9, "TEXCOORD_0" : 10}, "indices" : 8, "mode" : 4}], "name" : ""}], "nodes" : [{"mesh" : 0, "name" : "cabello2.002_Plane.005"}, {"mesh" : 1, "name" : "piel_Plane.004"}, {"mesh" : 2, "name" : "floor_Plane"}, {"mesh" : 3, "name" : "cabello1_Plane.002"}], "scene" : 0, "scenes" : [{"nodes" : [0, 1, 2, 3]}]}